<mxfile host="app.diagrams.net" modified="2023-11-05T20:09:53.439Z" agent="Mozilla/5.0 (Windows NT 10.0; Win64; x64) AppleWebKit/537.36 (KHTML, like Gecko) Chrome/118.0.0.0 Safari/537.36" version="22.0.8" etag="XJ6gi-7iBAsudre2Tl2w" type="github">
  <diagram name="Seite-1" id="JzsaE7mzixEYm2brD_ER">
    <mxGraphModel>
      <root>
        <mxCell id="0" />
        <mxCell id="1" parent="0" />
      </root>
    </mxGraphModel>
  </diagram>
</mxfile>
